<?xml version="1.0" encoding="iso-8859-1"?>
<!-- Generator: Adobe Illustrator 16.0.0, SVG Export Plug-In . SVG Version: 6.00 Build 0)  -->
<!DOCTYPE svg PUBLIC "-//W3C//DTD SVG 1.1//EN" "http://www.w3.org/Graphics/SVG/1.1/DTD/svg11.dtd">
<svg version="1.1" id="Capa_1" xmlns="http://www.w3.org/2000/svg" xmlns:xlink="http://www.w3.org/1999/xlink" x="0px" y="0px"
	 width="91.965px" height="91.965px" viewBox="0 0 91.965 91.965" style="enable-background:new 0 0 91.965 91.965;"
	 xml:space="preserve">
<g>
	<path d="M89.779,31.962L49.057,72.688c-2.326,2.322-6.108,2.322-8.437,0c-1.161-1.164-1.741-2.691-1.741-4.219
		s0.58-3.052,1.741-4.216l43.684-43.679C76.066,8.175,61.982,0,45.983,0C20.588,0,0.004,20.588,0.004,45.98
		c0,4.891,0.77,9.6,2.186,14.021l40.723-40.725c2.324-2.326,6.106-2.326,8.431,0c1.162,1.162,1.742,2.689,1.742,4.216
		c0,1.528-0.58,3.056-1.742,4.218L7.666,71.391c8.235,12.397,22.32,20.574,38.317,20.574c25.394,0,45.978-20.589,45.978-45.982
		C91.961,41.092,91.191,36.385,89.779,31.962z M23.495,74.432c-1.592,0-3.089-0.617-4.215-1.744c-2.323-2.324-2.323-6.109,0-8.434
		l44.976-44.977c2.326-2.326,6.109-2.326,8.434,0c1.127,1.125,1.75,2.625,1.75,4.218c0,1.591-0.623,3.087-1.75,4.216L27.713,72.688
		C26.586,73.812,25.088,74.432,23.495,74.432z"/>
</g>
<g>
</g>
<g>
</g>
<g>
</g>
<g>
</g>
<g>
</g>
<g>
</g>
<g>
</g>
<g>
</g>
<g>
</g>
<g>
</g>
<g>
</g>
<g>
</g>
<g>
</g>
<g>
</g>
<g>
</g>
</svg>
